<mxfile host="Electron" modified="2023-06-26T11:35:41.567Z" agent="Mozilla/5.0 (Windows NT 10.0; Win64; x64) AppleWebKit/537.36 (KHTML, like Gecko) draw.io/21.2.8 Chrome/112.0.5615.165 Electron/24.2.0 Safari/537.36" etag="C3kyZ16NJFBsg38BBL1J" version="21.2.8" type="device">
  <diagram name="Page-1" id="XrtmgbepDEW_kfSQkyj5">
    <mxGraphModel dx="1630" dy="1604" grid="1" gridSize="10" guides="1" tooltips="1" connect="1" arrows="1" fold="1" page="1" pageScale="1" pageWidth="850" pageHeight="1100" math="0" shadow="0">
      <root>
        <mxCell id="0" />
        <mxCell id="1" parent="0" />
        <mxCell id="swYCusZmgN0RJEcf6t8h-2" value="" style="rounded=0;whiteSpace=wrap;html=1;" parent="1" vertex="1">
          <mxGeometry x="120" y="80" width="80" height="40" as="geometry" />
        </mxCell>
        <mxCell id="swYCusZmgN0RJEcf6t8h-3" value="" style="rhombus;whiteSpace=wrap;html=1;" parent="1" vertex="1">
          <mxGeometry x="120" y="200" width="80" height="80" as="geometry" />
        </mxCell>
        <mxCell id="swYCusZmgN0RJEcf6t8h-4" value="" style="rounded=0;whiteSpace=wrap;html=1;" parent="1" vertex="1">
          <mxGeometry x="120" y="360" width="80" height="40" as="geometry" />
        </mxCell>
        <mxCell id="swYCusZmgN0RJEcf6t8h-6" value="" style="ellipse;whiteSpace=wrap;html=1;" parent="1" vertex="1">
          <mxGeometry y="40" width="80" height="40" as="geometry" />
        </mxCell>
        <mxCell id="swYCusZmgN0RJEcf6t8h-7" value="" style="ellipse;whiteSpace=wrap;html=1;" parent="1" vertex="1">
          <mxGeometry x="60" width="90" height="40" as="geometry" />
        </mxCell>
        <mxCell id="swYCusZmgN0RJEcf6t8h-8" value="" style="ellipse;whiteSpace=wrap;html=1;" parent="1" vertex="1">
          <mxGeometry x="160" width="90" height="40" as="geometry" />
        </mxCell>
        <mxCell id="swYCusZmgN0RJEcf6t8h-9" value="" style="ellipse;whiteSpace=wrap;html=1;" parent="1" vertex="1">
          <mxGeometry x="210" y="40" width="90" height="40" as="geometry" />
        </mxCell>
        <mxCell id="swYCusZmgN0RJEcf6t8h-10" value="" style="ellipse;whiteSpace=wrap;html=1;" parent="1" vertex="1">
          <mxGeometry y="400" width="100" height="50" as="geometry" />
        </mxCell>
        <mxCell id="swYCusZmgN0RJEcf6t8h-11" value="" style="ellipse;whiteSpace=wrap;html=1;" parent="1" vertex="1">
          <mxGeometry x="80" y="440" width="90" height="50" as="geometry" />
        </mxCell>
        <mxCell id="swYCusZmgN0RJEcf6t8h-12" value="" style="ellipse;whiteSpace=wrap;html=1;" parent="1" vertex="1">
          <mxGeometry x="180" y="440" width="90" height="50" as="geometry" />
        </mxCell>
        <mxCell id="swYCusZmgN0RJEcf6t8h-13" value="" style="ellipse;whiteSpace=wrap;html=1;" parent="1" vertex="1">
          <mxGeometry x="250" y="400" width="100" height="50" as="geometry" />
        </mxCell>
        <mxCell id="swYCusZmgN0RJEcf6t8h-14" value="" style="rounded=0;whiteSpace=wrap;html=1;" parent="1" vertex="1">
          <mxGeometry x="390" y="80" width="120" height="40" as="geometry" />
        </mxCell>
        <mxCell id="swYCusZmgN0RJEcf6t8h-16" value="" style="rhombus;whiteSpace=wrap;html=1;" parent="1" vertex="1">
          <mxGeometry x="400" y="335" width="110" height="90" as="geometry" />
        </mxCell>
        <mxCell id="swYCusZmgN0RJEcf6t8h-17" value="" style="rounded=0;whiteSpace=wrap;html=1;" parent="1" vertex="1">
          <mxGeometry x="630" y="360" width="60" height="40" as="geometry" />
        </mxCell>
        <mxCell id="swYCusZmgN0RJEcf6t8h-18" value="Admin" style="text;html=1;strokeColor=none;fillColor=none;align=center;verticalAlign=middle;whiteSpace=wrap;rounded=0;" parent="1" vertex="1">
          <mxGeometry x="120" y="80" width="80" height="40" as="geometry" />
        </mxCell>
        <mxCell id="swYCusZmgN0RJEcf6t8h-36" value="Id" style="text;html=1;strokeColor=none;fillColor=none;align=center;verticalAlign=middle;whiteSpace=wrap;rounded=0;" parent="1" vertex="1">
          <mxGeometry x="10" y="45" width="60" height="30" as="geometry" />
        </mxCell>
        <mxCell id="swYCusZmgN0RJEcf6t8h-37" value="admin_id" style="text;html=1;strokeColor=none;fillColor=none;align=center;verticalAlign=middle;whiteSpace=wrap;rounded=0;" parent="1" vertex="1">
          <mxGeometry x="75" y="5" width="60" height="30" as="geometry" />
        </mxCell>
        <mxCell id="swYCusZmgN0RJEcf6t8h-38" value="email" style="text;html=1;strokeColor=none;fillColor=none;align=center;verticalAlign=middle;whiteSpace=wrap;rounded=0;" parent="1" vertex="1">
          <mxGeometry x="175" y="5" width="60" height="30" as="geometry" />
        </mxCell>
        <mxCell id="swYCusZmgN0RJEcf6t8h-39" value="password" style="text;html=1;strokeColor=none;fillColor=none;align=center;verticalAlign=middle;whiteSpace=wrap;rounded=0;" parent="1" vertex="1">
          <mxGeometry x="220" y="45" width="60" height="30" as="geometry" />
        </mxCell>
        <mxCell id="swYCusZmgN0RJEcf6t8h-40" value="Manages" style="text;html=1;strokeColor=none;fillColor=none;align=center;verticalAlign=middle;whiteSpace=wrap;rounded=0;" parent="1" vertex="1">
          <mxGeometry x="130" y="225" width="60" height="30" as="geometry" />
        </mxCell>
        <mxCell id="swYCusZmgN0RJEcf6t8h-41" value="Order" style="text;html=1;strokeColor=none;fillColor=none;align=center;verticalAlign=middle;whiteSpace=wrap;rounded=0;" parent="1" vertex="1">
          <mxGeometry x="130" y="365" width="60" height="30" as="geometry" />
        </mxCell>
        <mxCell id="swYCusZmgN0RJEcf6t8h-42" value="id" style="text;html=1;strokeColor=none;fillColor=none;align=center;verticalAlign=middle;whiteSpace=wrap;rounded=0;" parent="1" vertex="1">
          <mxGeometry x="20" y="410" width="60" height="30" as="geometry" />
        </mxCell>
        <mxCell id="swYCusZmgN0RJEcf6t8h-43" value="order_details" style="text;html=1;strokeColor=none;fillColor=none;align=center;verticalAlign=middle;whiteSpace=wrap;rounded=0;" parent="1" vertex="1">
          <mxGeometry x="95" y="450" width="60" height="30" as="geometry" />
        </mxCell>
        <mxCell id="swYCusZmgN0RJEcf6t8h-44" value="order_status" style="text;html=1;strokeColor=none;fillColor=none;align=center;verticalAlign=middle;whiteSpace=wrap;rounded=0;" parent="1" vertex="1">
          <mxGeometry x="195" y="450" width="60" height="30" as="geometry" />
        </mxCell>
        <mxCell id="swYCusZmgN0RJEcf6t8h-45" value="order_date" style="text;html=1;strokeColor=none;fillColor=none;align=center;verticalAlign=middle;whiteSpace=wrap;rounded=0;" parent="1" vertex="1">
          <mxGeometry x="270" y="410" width="60" height="30" as="geometry" />
        </mxCell>
        <mxCell id="swYCusZmgN0RJEcf6t8h-46" value="Create account" style="text;html=1;strokeColor=none;fillColor=none;align=center;verticalAlign=middle;whiteSpace=wrap;rounded=0;" parent="1" vertex="1">
          <mxGeometry x="400" y="85" width="100" height="30" as="geometry" />
        </mxCell>
        <mxCell id="swYCusZmgN0RJEcf6t8h-47" value="Contains" style="text;html=1;strokeColor=none;fillColor=none;align=center;verticalAlign=middle;whiteSpace=wrap;rounded=0;" parent="1" vertex="1">
          <mxGeometry x="420" y="365" width="70" height="30" as="geometry" />
        </mxCell>
        <mxCell id="swYCusZmgN0RJEcf6t8h-48" value="food item" style="text;html=1;strokeColor=none;fillColor=none;align=center;verticalAlign=middle;whiteSpace=wrap;rounded=0;" parent="1" vertex="1">
          <mxGeometry x="629" y="370" width="60" height="20" as="geometry" />
        </mxCell>
        <mxCell id="swYCusZmgN0RJEcf6t8h-49" value="" style="rhombus;whiteSpace=wrap;html=1;" parent="1" vertex="1">
          <mxGeometry x="850" y="200" width="80" height="80" as="geometry" />
        </mxCell>
        <mxCell id="swYCusZmgN0RJEcf6t8h-50" value="assigned to" style="text;html=1;strokeColor=none;fillColor=none;align=center;verticalAlign=middle;whiteSpace=wrap;rounded=0;" parent="1" vertex="1">
          <mxGeometry x="860" y="225" width="60" height="30" as="geometry" />
        </mxCell>
        <mxCell id="swYCusZmgN0RJEcf6t8h-51" value="" style="rhombus;whiteSpace=wrap;html=1;" parent="1" vertex="1">
          <mxGeometry x="850" y="340" width="80" height="80" as="geometry" />
        </mxCell>
        <mxCell id="swYCusZmgN0RJEcf6t8h-52" value="creates" style="text;html=1;strokeColor=none;fillColor=none;align=center;verticalAlign=middle;whiteSpace=wrap;rounded=0;" parent="1" vertex="1">
          <mxGeometry x="860" y="365" width="60" height="30" as="geometry" />
        </mxCell>
        <mxCell id="swYCusZmgN0RJEcf6t8h-53" value="" style="rounded=0;whiteSpace=wrap;html=1;" parent="1" vertex="1">
          <mxGeometry x="1000" y="80" width="120" height="40" as="geometry" />
        </mxCell>
        <mxCell id="swYCusZmgN0RJEcf6t8h-54" value="Kitchen Staff" style="text;html=1;strokeColor=none;fillColor=none;align=center;verticalAlign=middle;whiteSpace=wrap;rounded=0;" parent="1" vertex="1">
          <mxGeometry x="1000" y="85" width="120" height="30" as="geometry" />
        </mxCell>
        <mxCell id="swYCusZmgN0RJEcf6t8h-55" value="" style="rounded=0;whiteSpace=wrap;html=1;" parent="1" vertex="1">
          <mxGeometry x="1000" y="480" width="120" height="40" as="geometry" />
        </mxCell>
        <mxCell id="swYCusZmgN0RJEcf6t8h-56" value="User" style="text;html=1;strokeColor=none;fillColor=none;align=center;verticalAlign=middle;whiteSpace=wrap;rounded=0;" parent="1" vertex="1">
          <mxGeometry x="1010" y="485" width="90" height="30" as="geometry" />
        </mxCell>
        <mxCell id="swYCusZmgN0RJEcf6t8h-57" value="" style="ellipse;whiteSpace=wrap;html=1;" parent="1" vertex="1">
          <mxGeometry x="920" y="550" width="70" height="30" as="geometry" />
        </mxCell>
        <mxCell id="swYCusZmgN0RJEcf6t8h-58" value="id" style="text;html=1;strokeColor=none;fillColor=none;align=center;verticalAlign=middle;whiteSpace=wrap;rounded=0;" parent="1" vertex="1">
          <mxGeometry x="925" y="550" width="60" height="30" as="geometry" />
        </mxCell>
        <mxCell id="swYCusZmgN0RJEcf6t8h-59" value="" style="ellipse;whiteSpace=wrap;html=1;" parent="1" vertex="1">
          <mxGeometry x="960" y="580" width="70" height="30" as="geometry" />
        </mxCell>
        <mxCell id="swYCusZmgN0RJEcf6t8h-60" value="email" style="text;html=1;strokeColor=none;fillColor=none;align=center;verticalAlign=middle;whiteSpace=wrap;rounded=0;" parent="1" vertex="1">
          <mxGeometry x="960" y="580" width="60" height="30" as="geometry" />
        </mxCell>
        <mxCell id="swYCusZmgN0RJEcf6t8h-62" value="" style="ellipse;whiteSpace=wrap;html=1;" parent="1" vertex="1">
          <mxGeometry x="1040" y="580" width="80" height="30" as="geometry" />
        </mxCell>
        <mxCell id="swYCusZmgN0RJEcf6t8h-63" value="name" style="text;html=1;strokeColor=none;fillColor=none;align=center;verticalAlign=middle;whiteSpace=wrap;rounded=0;" parent="1" vertex="1">
          <mxGeometry x="1050" y="580" width="60" height="30" as="geometry" />
        </mxCell>
        <mxCell id="swYCusZmgN0RJEcf6t8h-64" value="" style="ellipse;whiteSpace=wrap;html=1;" parent="1" vertex="1">
          <mxGeometry x="1110" y="560" width="80" height="30" as="geometry" />
        </mxCell>
        <mxCell id="swYCusZmgN0RJEcf6t8h-65" value="password" style="text;html=1;strokeColor=none;fillColor=none;align=center;verticalAlign=middle;whiteSpace=wrap;rounded=0;" parent="1" vertex="1">
          <mxGeometry x="1120" y="560" width="60" height="30" as="geometry" />
        </mxCell>
        <mxCell id="swYCusZmgN0RJEcf6t8h-66" value="" style="ellipse;whiteSpace=wrap;html=1;" parent="1" vertex="1">
          <mxGeometry x="910" y="50" width="70" height="30" as="geometry" />
        </mxCell>
        <mxCell id="swYCusZmgN0RJEcf6t8h-67" value="id" style="text;html=1;strokeColor=none;fillColor=none;align=center;verticalAlign=middle;whiteSpace=wrap;rounded=0;" parent="1" vertex="1">
          <mxGeometry x="915" y="50" width="60" height="30" as="geometry" />
        </mxCell>
        <mxCell id="swYCusZmgN0RJEcf6t8h-68" value="" style="ellipse;whiteSpace=wrap;html=1;" parent="1" vertex="1">
          <mxGeometry x="960" y="10" width="80" height="30" as="geometry" />
        </mxCell>
        <mxCell id="swYCusZmgN0RJEcf6t8h-69" value="email" style="text;html=1;strokeColor=none;fillColor=none;align=center;verticalAlign=middle;whiteSpace=wrap;rounded=0;" parent="1" vertex="1">
          <mxGeometry x="965" y="10" width="60" height="30" as="geometry" />
        </mxCell>
        <mxCell id="swYCusZmgN0RJEcf6t8h-70" value="" style="ellipse;whiteSpace=wrap;html=1;" parent="1" vertex="1">
          <mxGeometry x="1050" y="10" width="70" height="30" as="geometry" />
        </mxCell>
        <mxCell id="swYCusZmgN0RJEcf6t8h-71" value="password" style="text;html=1;strokeColor=none;fillColor=none;align=center;verticalAlign=middle;whiteSpace=wrap;rounded=0;" parent="1" vertex="1">
          <mxGeometry x="1050" y="10" width="60" height="30" as="geometry" />
        </mxCell>
        <mxCell id="swYCusZmgN0RJEcf6t8h-72" value="" style="ellipse;whiteSpace=wrap;html=1;" parent="1" vertex="1">
          <mxGeometry x="1120" y="30" width="80" height="40" as="geometry" />
        </mxCell>
        <mxCell id="swYCusZmgN0RJEcf6t8h-73" value="name" style="text;html=1;strokeColor=none;fillColor=none;align=center;verticalAlign=middle;whiteSpace=wrap;rounded=0;" parent="1" vertex="1">
          <mxGeometry x="1130" y="35" width="60" height="30" as="geometry" />
        </mxCell>
        <mxCell id="swYCusZmgN0RJEcf6t8h-76" value="" style="endArrow=classic;html=1;rounded=0;entryX=0;entryY=1;entryDx=0;entryDy=0;" parent="1" target="swYCusZmgN0RJEcf6t8h-39" edge="1">
          <mxGeometry width="50" height="50" relative="1" as="geometry">
            <mxPoint x="200" y="85" as="sourcePoint" />
            <mxPoint x="250" y="35" as="targetPoint" />
          </mxGeometry>
        </mxCell>
        <mxCell id="swYCusZmgN0RJEcf6t8h-77" value="" style="endArrow=classic;html=1;rounded=0;" parent="1" edge="1">
          <mxGeometry width="50" height="50" relative="1" as="geometry">
            <mxPoint x="170" y="80" as="sourcePoint" />
            <mxPoint x="190" y="40" as="targetPoint" />
          </mxGeometry>
        </mxCell>
        <mxCell id="swYCusZmgN0RJEcf6t8h-78" value="" style="endArrow=classic;html=1;rounded=0;entryX=0.704;entryY=1.092;entryDx=0;entryDy=0;entryPerimeter=0;" parent="1" target="swYCusZmgN0RJEcf6t8h-7" edge="1">
          <mxGeometry width="50" height="50" relative="1" as="geometry">
            <mxPoint x="140" y="80" as="sourcePoint" />
            <mxPoint x="190" y="30" as="targetPoint" />
          </mxGeometry>
        </mxCell>
        <mxCell id="swYCusZmgN0RJEcf6t8h-79" value="" style="endArrow=classic;html=1;rounded=0;entryX=1.042;entryY=0.675;entryDx=0;entryDy=0;entryPerimeter=0;" parent="1" target="swYCusZmgN0RJEcf6t8h-6" edge="1">
          <mxGeometry width="50" height="50" relative="1" as="geometry">
            <mxPoint x="120" y="80" as="sourcePoint" />
            <mxPoint x="170" y="30" as="targetPoint" />
          </mxGeometry>
        </mxCell>
        <mxCell id="swYCusZmgN0RJEcf6t8h-80" value="" style="endArrow=classic;html=1;rounded=0;entryX=1.02;entryY=0.313;entryDx=0;entryDy=0;entryPerimeter=0;" parent="1" target="swYCusZmgN0RJEcf6t8h-10" edge="1">
          <mxGeometry width="50" height="50" relative="1" as="geometry">
            <mxPoint x="120" y="400" as="sourcePoint" />
            <mxPoint x="380" y="270" as="targetPoint" />
          </mxGeometry>
        </mxCell>
        <mxCell id="swYCusZmgN0RJEcf6t8h-81" value="" style="endArrow=classic;html=1;rounded=0;entryX=0.667;entryY=-0.087;entryDx=0;entryDy=0;entryPerimeter=0;exitX=0.35;exitY=1.075;exitDx=0;exitDy=0;exitPerimeter=0;" parent="1" source="swYCusZmgN0RJEcf6t8h-4" target="swYCusZmgN0RJEcf6t8h-11" edge="1">
          <mxGeometry width="50" height="50" relative="1" as="geometry">
            <mxPoint x="410" y="230" as="sourcePoint" />
            <mxPoint x="360" y="300" as="targetPoint" />
          </mxGeometry>
        </mxCell>
        <mxCell id="swYCusZmgN0RJEcf6t8h-82" value="" style="endArrow=classic;html=1;rounded=0;entryX=0.222;entryY=-0.02;entryDx=0;entryDy=0;entryPerimeter=0;exitX=0.75;exitY=1;exitDx=0;exitDy=0;" parent="1" source="swYCusZmgN0RJEcf6t8h-4" target="swYCusZmgN0RJEcf6t8h-12" edge="1">
          <mxGeometry width="50" height="50" relative="1" as="geometry">
            <mxPoint x="410" y="230" as="sourcePoint" />
            <mxPoint x="460" y="180" as="targetPoint" />
          </mxGeometry>
        </mxCell>
        <mxCell id="swYCusZmgN0RJEcf6t8h-83" value="" style="endArrow=classic;html=1;rounded=0;exitX=1;exitY=1;exitDx=0;exitDy=0;entryX=0;entryY=0.5;entryDx=0;entryDy=0;" parent="1" source="swYCusZmgN0RJEcf6t8h-4" target="swYCusZmgN0RJEcf6t8h-13" edge="1">
          <mxGeometry width="50" height="50" relative="1" as="geometry">
            <mxPoint x="410" y="230" as="sourcePoint" />
            <mxPoint x="460" y="180" as="targetPoint" />
          </mxGeometry>
        </mxCell>
        <mxCell id="swYCusZmgN0RJEcf6t8h-84" value="" style="endArrow=classic;html=1;rounded=0;exitX=0;exitY=0;exitDx=0;exitDy=0;entryX=1.01;entryY=0.789;entryDx=0;entryDy=0;entryPerimeter=0;" parent="1" source="swYCusZmgN0RJEcf6t8h-53" target="swYCusZmgN0RJEcf6t8h-66" edge="1">
          <mxGeometry width="50" height="50" relative="1" as="geometry">
            <mxPoint x="810" y="180" as="sourcePoint" />
            <mxPoint x="860" y="130" as="targetPoint" />
          </mxGeometry>
        </mxCell>
        <mxCell id="swYCusZmgN0RJEcf6t8h-85" value="" style="endArrow=classic;html=1;rounded=0;exitX=0.2;exitY=-0.178;exitDx=0;exitDy=0;exitPerimeter=0;entryX=0.75;entryY=1;entryDx=0;entryDy=0;" parent="1" source="swYCusZmgN0RJEcf6t8h-54" target="swYCusZmgN0RJEcf6t8h-69" edge="1">
          <mxGeometry width="50" height="50" relative="1" as="geometry">
            <mxPoint x="810" y="180" as="sourcePoint" />
            <mxPoint x="860" y="130" as="targetPoint" />
          </mxGeometry>
        </mxCell>
        <mxCell id="swYCusZmgN0RJEcf6t8h-86" value="" style="endArrow=classic;html=1;rounded=0;exitX=0.644;exitY=-0.075;exitDx=0;exitDy=0;exitPerimeter=0;entryX=0.5;entryY=1;entryDx=0;entryDy=0;" parent="1" source="swYCusZmgN0RJEcf6t8h-53" target="swYCusZmgN0RJEcf6t8h-71" edge="1">
          <mxGeometry width="50" height="50" relative="1" as="geometry">
            <mxPoint x="810" y="180" as="sourcePoint" />
            <mxPoint x="860" y="130" as="targetPoint" />
          </mxGeometry>
        </mxCell>
        <mxCell id="swYCusZmgN0RJEcf6t8h-87" value="" style="endArrow=classic;html=1;rounded=0;exitX=0.883;exitY=-0.042;exitDx=0;exitDy=0;exitPerimeter=0;" parent="1" source="swYCusZmgN0RJEcf6t8h-53" target="swYCusZmgN0RJEcf6t8h-72" edge="1">
          <mxGeometry width="50" height="50" relative="1" as="geometry">
            <mxPoint x="810" y="180" as="sourcePoint" />
            <mxPoint x="860" y="130" as="targetPoint" />
          </mxGeometry>
        </mxCell>
        <mxCell id="swYCusZmgN0RJEcf6t8h-88" value="" style="endArrow=classic;html=1;rounded=0;exitX=0;exitY=1;exitDx=0;exitDy=0;entryX=0.75;entryY=0;entryDx=0;entryDy=0;" parent="1" source="swYCusZmgN0RJEcf6t8h-55" target="swYCusZmgN0RJEcf6t8h-58" edge="1">
          <mxGeometry width="50" height="50" relative="1" as="geometry">
            <mxPoint x="810" y="470" as="sourcePoint" />
            <mxPoint x="950" y="540" as="targetPoint" />
          </mxGeometry>
        </mxCell>
        <mxCell id="swYCusZmgN0RJEcf6t8h-89" value="" style="endArrow=classic;html=1;rounded=0;exitX=0.25;exitY=1;exitDx=0;exitDy=0;entryX=0.75;entryY=0;entryDx=0;entryDy=0;" parent="1" source="swYCusZmgN0RJEcf6t8h-55" target="swYCusZmgN0RJEcf6t8h-60" edge="1">
          <mxGeometry width="50" height="50" relative="1" as="geometry">
            <mxPoint x="810" y="470" as="sourcePoint" />
            <mxPoint x="860" y="420" as="targetPoint" />
          </mxGeometry>
        </mxCell>
        <mxCell id="swYCusZmgN0RJEcf6t8h-90" value="" style="endArrow=classic;html=1;rounded=0;entryX=0.25;entryY=0;entryDx=0;entryDy=0;exitX=0.5;exitY=1;exitDx=0;exitDy=0;" parent="1" source="swYCusZmgN0RJEcf6t8h-55" target="swYCusZmgN0RJEcf6t8h-63" edge="1">
          <mxGeometry width="50" height="50" relative="1" as="geometry">
            <mxPoint x="810" y="470" as="sourcePoint" />
            <mxPoint x="860" y="420" as="targetPoint" />
          </mxGeometry>
        </mxCell>
        <mxCell id="swYCusZmgN0RJEcf6t8h-91" value="" style="endArrow=classic;html=1;rounded=0;entryX=0.25;entryY=0;entryDx=0;entryDy=0;exitX=0.85;exitY=1.092;exitDx=0;exitDy=0;exitPerimeter=0;" parent="1" source="swYCusZmgN0RJEcf6t8h-55" target="swYCusZmgN0RJEcf6t8h-65" edge="1">
          <mxGeometry width="50" height="50" relative="1" as="geometry">
            <mxPoint x="810" y="470" as="sourcePoint" />
            <mxPoint x="860" y="420" as="targetPoint" />
          </mxGeometry>
        </mxCell>
        <mxCell id="swYCusZmgN0RJEcf6t8h-93" value="" style="endArrow=classic;html=1;rounded=0;entryX=0;entryY=1;entryDx=0;entryDy=0;" parent="1" target="swYCusZmgN0RJEcf6t8h-54" edge="1">
          <mxGeometry width="50" height="50" relative="1" as="geometry">
            <mxPoint x="890" y="200" as="sourcePoint" />
            <mxPoint x="1000" y="100" as="targetPoint" />
          </mxGeometry>
        </mxCell>
        <mxCell id="swYCusZmgN0RJEcf6t8h-94" value="" style="endArrow=classic;html=1;rounded=0;exitX=1;exitY=0;exitDx=0;exitDy=0;entryX=0;entryY=0.5;entryDx=0;entryDy=0;" parent="1" source="swYCusZmgN0RJEcf6t8h-17" target="swYCusZmgN0RJEcf6t8h-49" edge="1">
          <mxGeometry width="50" height="50" relative="1" as="geometry">
            <mxPoint x="730" y="300" as="sourcePoint" />
            <mxPoint x="780" y="250" as="targetPoint" />
          </mxGeometry>
        </mxCell>
        <mxCell id="swYCusZmgN0RJEcf6t8h-95" value="" style="endArrow=classic;html=1;rounded=0;entryX=1;entryY=0.5;entryDx=0;entryDy=0;exitX=0;exitY=0.5;exitDx=0;exitDy=0;" parent="1" source="swYCusZmgN0RJEcf6t8h-51" target="swYCusZmgN0RJEcf6t8h-48" edge="1">
          <mxGeometry width="50" height="50" relative="1" as="geometry">
            <mxPoint x="780" y="490" as="sourcePoint" />
            <mxPoint x="830" y="420" as="targetPoint" />
          </mxGeometry>
        </mxCell>
        <mxCell id="swYCusZmgN0RJEcf6t8h-96" value="" style="endArrow=classic;html=1;rounded=0;exitX=1;exitY=0.5;exitDx=0;exitDy=0;entryX=0;entryY=0.5;entryDx=0;entryDy=0;" parent="1" source="swYCusZmgN0RJEcf6t8h-16" target="swYCusZmgN0RJEcf6t8h-48" edge="1">
          <mxGeometry width="50" height="50" relative="1" as="geometry">
            <mxPoint x="560" y="290" as="sourcePoint" />
            <mxPoint x="610" y="240" as="targetPoint" />
          </mxGeometry>
        </mxCell>
        <mxCell id="swYCusZmgN0RJEcf6t8h-97" value="" style="endArrow=classic;html=1;rounded=0;exitX=1;exitY=0.5;exitDx=0;exitDy=0;entryX=0;entryY=0.5;entryDx=0;entryDy=0;" parent="1" source="swYCusZmgN0RJEcf6t8h-4" target="swYCusZmgN0RJEcf6t8h-16" edge="1">
          <mxGeometry width="50" height="50" relative="1" as="geometry">
            <mxPoint x="400" y="340" as="sourcePoint" />
            <mxPoint x="450" y="290" as="targetPoint" />
          </mxGeometry>
        </mxCell>
        <mxCell id="swYCusZmgN0RJEcf6t8h-98" value="" style="endArrow=classic;html=1;rounded=0;exitX=0.5;exitY=1;exitDx=0;exitDy=0;entryX=0.5;entryY=0;entryDx=0;entryDy=0;" parent="1" source="swYCusZmgN0RJEcf6t8h-3" target="swYCusZmgN0RJEcf6t8h-4" edge="1">
          <mxGeometry width="50" height="50" relative="1" as="geometry">
            <mxPoint x="400" y="260" as="sourcePoint" />
            <mxPoint x="450" y="210" as="targetPoint" />
          </mxGeometry>
        </mxCell>
        <mxCell id="swYCusZmgN0RJEcf6t8h-99" value="" style="endArrow=classic;html=1;rounded=0;exitX=0.5;exitY=1;exitDx=0;exitDy=0;entryX=0.5;entryY=0;entryDx=0;entryDy=0;" parent="1" source="swYCusZmgN0RJEcf6t8h-18" target="swYCusZmgN0RJEcf6t8h-3" edge="1">
          <mxGeometry width="50" height="50" relative="1" as="geometry">
            <mxPoint x="400" y="260" as="sourcePoint" />
            <mxPoint x="450" y="210" as="targetPoint" />
          </mxGeometry>
        </mxCell>
        <mxCell id="swYCusZmgN0RJEcf6t8h-100" value="" style="endArrow=classic;html=1;rounded=0;exitX=1;exitY=0.5;exitDx=0;exitDy=0;entryX=0;entryY=0.5;entryDx=0;entryDy=0;" parent="1" source="swYCusZmgN0RJEcf6t8h-18" target="swYCusZmgN0RJEcf6t8h-14" edge="1">
          <mxGeometry width="50" height="50" relative="1" as="geometry">
            <mxPoint x="400" y="260" as="sourcePoint" />
            <mxPoint x="450" y="210" as="targetPoint" />
          </mxGeometry>
        </mxCell>
        <mxCell id="swYCusZmgN0RJEcf6t8h-104" value="" style="endArrow=classic;html=1;rounded=0;exitX=0;exitY=0.5;exitDx=0;exitDy=0;entryX=0;entryY=0.75;entryDx=0;entryDy=0;" parent="1" source="swYCusZmgN0RJEcf6t8h-3" target="swYCusZmgN0RJEcf6t8h-55" edge="1">
          <mxGeometry width="50" height="50" relative="1" as="geometry">
            <mxPoint x="320" y="320" as="sourcePoint" />
            <mxPoint x="480" y="520" as="targetPoint" />
            <Array as="points">
              <mxPoint y="240" />
              <mxPoint y="510" />
            </Array>
          </mxGeometry>
        </mxCell>
        <mxCell id="swYCusZmgN0RJEcf6t8h-105" value="" style="endArrow=classic;html=1;rounded=0;entryX=1;entryY=0.5;entryDx=0;entryDy=0;exitX=0;exitY=0;exitDx=0;exitDy=0;" parent="1" source="swYCusZmgN0RJEcf6t8h-3" target="swYCusZmgN0RJEcf6t8h-54" edge="1">
          <mxGeometry width="50" height="50" relative="1" as="geometry">
            <mxPoint x="110" y="220" as="sourcePoint" />
            <mxPoint x="1230" y="50" as="targetPoint" />
            <Array as="points">
              <mxPoint x="-20" y="220" />
              <mxPoint x="-20" y="640" />
              <mxPoint x="1280" y="640" />
              <mxPoint x="1280" y="100" />
            </Array>
          </mxGeometry>
        </mxCell>
        <mxCell id="swYCusZmgN0RJEcf6t8h-106" value="" style="endArrow=classic;html=1;rounded=0;exitX=1;exitY=0.75;exitDx=0;exitDy=0;entryX=0.417;entryY=-0.097;entryDx=0;entryDy=0;entryPerimeter=0;" parent="1" source="swYCusZmgN0RJEcf6t8h-55" target="swYCusZmgN0RJEcf6t8h-14" edge="1">
          <mxGeometry width="50" height="50" relative="1" as="geometry">
            <mxPoint x="630" y="330" as="sourcePoint" />
            <mxPoint x="450" y="70" as="targetPoint" />
            <Array as="points">
              <mxPoint x="1180" y="510" />
              <mxPoint x="1240" y="510" />
              <mxPoint x="1240" />
              <mxPoint x="850" />
              <mxPoint x="440" />
            </Array>
          </mxGeometry>
        </mxCell>
        <mxCell id="swYCusZmgN0RJEcf6t8h-107" value="" style="endArrow=classic;html=1;rounded=0;exitX=0;exitY=0.5;exitDx=0;exitDy=0;entryX=1;entryY=0.5;entryDx=0;entryDy=0;" parent="1" source="swYCusZmgN0RJEcf6t8h-54" target="swYCusZmgN0RJEcf6t8h-14" edge="1">
          <mxGeometry width="50" height="50" relative="1" as="geometry">
            <mxPoint x="630" y="330" as="sourcePoint" />
            <mxPoint x="680" y="280" as="targetPoint" />
          </mxGeometry>
        </mxCell>
        <mxCell id="swYCusZmgN0RJEcf6t8h-109" value="" style="endArrow=classic;html=1;rounded=0;entryX=1;entryY=0.5;entryDx=0;entryDy=0;" parent="1" target="swYCusZmgN0RJEcf6t8h-51" edge="1">
          <mxGeometry width="50" height="50" relative="1" as="geometry">
            <mxPoint x="1020" y="480" as="sourcePoint" />
            <mxPoint x="930" y="410" as="targetPoint" />
          </mxGeometry>
        </mxCell>
        <mxCell id="_0cXg9GSJSOQ9_8nP1WD-4" value="" style="endArrow=classic;html=1;rounded=0;exitX=0.5;exitY=0;exitDx=0;exitDy=0;" edge="1" parent="1" source="swYCusZmgN0RJEcf6t8h-51">
          <mxGeometry width="50" height="50" relative="1" as="geometry">
            <mxPoint x="840" y="330" as="sourcePoint" />
            <mxPoint x="890" y="280" as="targetPoint" />
          </mxGeometry>
        </mxCell>
      </root>
    </mxGraphModel>
  </diagram>
</mxfile>
